PathFileType	4	(X/Y/Z)	C:/Users/beibeiliu/ov580/test_trc/User3\sequence.10_training_dense_left.trc
DataRate	CameraRate	NumFrames	NumMarkers	Units	OrigDataRate	OrigDataStartFrame	OrigNumFrames
120	120	15	19	mm	120	47	117
Frame#	Time	ThumbCMC			ThumbMCP			ThumbIP			ThumbTip			IndexMCP			IndexPIP			IndexTip			MiddleMCP			MiddlePIP			MiddleTip			RingMCP			RingPIP			RingTip			PinkyMCP			PinkyPIP			PinkyTip			BackHand1			BackHand2			BackHand3	
		X0	Y0	Z0	X1	Y1	Z1	X2	Y2	Z2	X3	Y3	Z3	X4	Y4	Z4	X5	Y5	Z5	X6	Y6	Z6	X7	Y7	Z7	X8	Y8	Z8	X9	Y9	Z9	X10	Y10	Z10	X11	Y11	Z11	X12	Y12	Z12	X13	Y13	Z13	X14	Y14	Z14	X15	Y15	Z15	X16	Y16	Z16	X17	Y17	Z17	X18	Y18	Z18	
46	0.383333	-148.471	-44.3175	28.6736	-133	-60.7727	4.78992	-132.017	-72.7379	-21.3828	-144.301	-84.9806	-42.5645	-168.314	-33.8043	-40.5056	-163.29	-56.4021	-60.8694	-162.669	-88.3425	-58.976	-193.18	-22.3465	-43.925	-193.206	-29.4543	-75.2726	-192.157	-43.8922	-100.38	-217.508	-30.5801	-31.3045	-216.308	-30.691	-58.428	-221.784	-41.8785	-84.4137	-232.369	-43.5162	-19.2715	-236.6	-46.0199	-36.3376	-240.999	-53.9328	-59.3704	-210.979	-25.784	19.7689	-209.897	-29.4881	51.272	-177.616	-19.9199	30.927	
47	0.391667	-147.498	-45.3803	30.0537	-137.811	-60.6475	4.47422	-129.105	-73.5268	-24.7948	-137.673	-86.701	-43.4436	-168.407	-35.5914	-43.5895	-161.178	-56.5792	-59.7616	-157.855	-88.7211	-59.3561	-195.341	-23.2182	-41.099	-196.548	-29.4419	-72.5743	-191.046	-43.8028	-101.56	-216.477	-30.2807	-35.2765	-216.58	-31.5589	-58.5364	-221.154	-41.8841	-86.1874	-229.724	-44.3433	-16.4279	-237.917	-47.8593	-39.4237	-240.606	-54.9107	-63.2512	-211.689	-28.6402	22.4924	-208.617	-27.0114	47.8618	-178.147	-18.5017	30.7763	
48	0.4	-148.934	-44.9529	33.2072	-136.769	-60.3759	6.22598	-127.251	-72.9094	-23.2648	-140.829	-84.9314	-42.6539	-167.666	-33.8613	-42.0084	-162.231	-57.8195	-61.271	-158.398	-87.7953	-60.0151	-196.321	-24.0784	-41.7418	-191.359	-29.289	-73.8921	-187.358	-44.7653	-103.187	-211.845	-31.0428	-31.7958	-219.437	-32.8754	-60.7915	-214.933	-42.6237	-88.9127	-232.277	-44.684	-19.739	-236.14	-47.5812	-43.1261	-239.171	-53.6392	-61.6686	-213.662	-27.952	22.3713	-210.805	-29.4081	46.6426	-182.485	-20.0884	32.4346	
49	0.408333	-145.721	-44.5982	30.3084	-135.463	-58.1215	7.13646	-127.545	-69.6804	-20.6401	-135.543	-82.2497	-43.5508	-165.495	-33.4915	-43.1159	-156.794	-57.851	-60.8459	-152.974	-85.2704	-58.8947	-192.92	-22.0178	-43.3396	-191.011	-28.4358	-72.366	-189.205	-44.0647	-103.734	-212.684	-29.463	-33.965	-213.41	-31.2413	-62.2579	-215.366	-40.6966	-87.521	-225.426	-44.8331	-15.6236	-230.727	-46.2234	-41.1629	-238.174	-53.3867	-65.869	-212.373	-26.2306	18.9835	-208.017	-30.644	47.8047	-180.183	-20.0362	31.2831	
50	0.416667	-145.921	-44.4177	37.2236	-130.208	-54.1622	8.25884	-123.338	-64.3249	-17.9216	-128.144	-76.1319	-42.4989	-159.968	-27.4346	-36.8493	-155.046	-51.4076	-62.1003	-147.32	-78.7233	-59.3559	-189.039	-19.1335	-41.721	-185.877	-22.7705	-72.4887	-182.22	-37.0005	-100.012	-206.883	-27.0781	-32.5356	-209.979	-28.7989	-63.4743	-206.841	-38.2104	-90.8705	-224.243	-43.1366	-22.6164	-230.021	-45.4711	-43.1565	-228.948	-49.2612	-65.8943	-210.163	-26.7025	20.6606	-211.381	-30.1132	46.9172	-179.749	-19.3519	32.265	
51	0.425	-144.366	-43.2583	39.3205	-123.384	-49.6261	13.0406	-119.573	-57.0822	-15.7173	-127.878	-67.5214	-42.6873	-158.811	-22.8329	-38.3087	-149.279	-44.0511	-61.1787	-145.068	-76.0166	-56.2385	-184.067	-15.2658	-40.5341	-177.722	-15.8349	-68.7649	-174.298	-34.1289	-103.676	-200.521	-23.6553	-34.3655	-200.633	-23.6725	-63.5898	-201.786	-33.6972	-88.3242	-222.596	-42.3935	-22.3296	-222.491	-43.4369	-49.3036	-218.832	-49.2315	-70.2683	-206.701	-26.0521	17.9247	-211.681	-32.9491	46.4284	-176.361	-17.9018	32.6791	
52	0.433333	-147.134	-39.8138	37.8271	-124.857	-42.8899	17.244	-114.615	-46.6818	-18.7698	-127.293	-58.7766	-38.6113	-159.512	-19.1499	-36.4929	-148.781	-38.7162	-61.0792	-143.855	-70.6532	-52.2361	-182.973	-11.7433	-44.0446	-174.372	-12.7434	-69.3352	-164.515	-29.5616	-100.085	-202.31	-24.2122	-33.952	-197.153	-21.5565	-62.8504	-195.555	-31.1914	-90.6357	-218.994	-41.2547	-25.5698	-218.046	-42.6402	-51.5663	-217.955	-48.6884	-76.2523	-205.027	-26.1763	15.8756	-212.154	-32.3477	48.0277	-175.606	-17.0314	31.2987	
53	0.441667	-143.876	-39.1828	41.2847	-121.714	-36.8809	13.7837	-113.336	-41.6221	-16.8839	-127.418	-53.6137	-34.7994	-157.578	-16.9358	-35.5451	-145.575	-37.6137	-60.6512	-139.356	-65.3784	-50.3545	-176.885	-9.91772	-42.872	-172.318	-12.6237	-72.9726	-164.67	-29.3333	-100.617	-195.271	-20.6792	-35.6853	-196.594	-21.2024	-61.9969	-191.258	-27.8556	-87.804	-214.059	-38.6407	-25.3172	-213.784	-40.1161	-50.8569	-213.539	-45.7551	-73.624	-207.551	-25.5203	19.7572	-208.967	-31.3799	45.7232	-173.278	-16.4416	31.4386	
54	0.45	-143.224	-36.335	38.1248	-123.206	-34.567	17.4348	-114.871	-37.2221	-14.5485	-129.212	-49.7933	-32.7129	-157.513	-16.2218	-36.0165	-144.407	-39.4034	-60.496	-139.343	-64.4358	-46.06	-181.856	-10.9803	-41.1581	-171.626	-13.0446	-72.6189	-162.267	-28.8761	-100.874	-199.538	-22.9547	-34.7624	-198.208	-21.939	-64.8613	-190.206	-29.1512	-88.519	-214.185	-39.1718	-28.1517	-214.199	-41.0197	-50.8433	-210.193	-47.9889	-73.6651	-206.61	-25.7533	17.7262	-209.456	-35.931	46.2897	-173.221	-19.5027	32.8993	
55	0.458333	-145.202	-37.5298	39.4268	-121.931	-31.829	16.0058	-118.137	-35.4786	-12.4567	-128.57	-47.6026	-36.0311	-158.439	-15.1222	-33.5529	-145.372	-36.1838	-58.3134	-139.578	-63.4436	-42.2135	-178.793	-9.42298	-39.6967	-170.237	-10.0169	-71.2349	-164.501	-25.5943	-97.4326	-195.919	-21.3001	-31.8487	-195.974	-20.1622	-65.8237	-189.628	-27.8991	-88.7534	-215.028	-39.8406	-26.6287	-212.858	-40.209	-48.3056	-211.232	-49.9805	-76.6012	-202.751	-26.7436	18.6597	-205.608	-33.6469	44.947	-175.186	-18.5391	36.6456	
56	0.466667	-142.261	-35.3091	38.6899	-119.196	-31.2608	17.0166	-112.211	-33.8814	-13.3794	-123.967	-46.737	-34.6799	-153.719	-13.361	-35.4377	-140.373	-33.9776	-57.1208	-135.253	-60.6749	-41.9204	-177.402	-7.50457	-41.2121	-170.656	-10.2799	-72.0133	-162.583	-26.3625	-100.312	-195.261	-20.9937	-32.1409	-194.349	-19.3493	-65.1588	-185.352	-26.3369	-90.6922	-211.12	-39.5451	-23.4945	-211.948	-39.3713	-47.4072	-210.775	-47.5693	-74.8993	-205.706	-25.3061	14.5682	-208.35	-34.2964	47.2951	-171.773	-18.4501	32.6387	
57	0.475	-143.071	-37.3842	40.6613	-120.693	-32.9908	18.2005	-115.923	-36.3811	-14.4614	-126.101	-47.4941	-32.6203	-151.808	-14.2412	-38.1991	-142.303	-35.6716	-58.3512	-136.622	-62.1423	-40.701	-178.114	-6.88902	-41.4987	-171.466	-7.7533	-68.2502	-160.654	-24.6477	-101.512	-194.006	-17.8784	-37.1237	-191.966	-15.8151	-63.8144	-186.841	-23.6035	-87.6049	-212.307	-38.7942	-25.6566	-214.438	-39.5814	-52.1929	-213.279	-44.0159	-74.2998	-203.922	-27.4194	16.4043	-203.022	-31.7311	45.4301	-173.234	-18.0661	34.362	
58	0.483333	-139.569	-37.1132	39.3296	-120.867	-35.3622	14.3568	-113.487	-38.4391	-14.0008	-127.219	-49.381	-37.3405	-154.595	-14.3034	-37.642	-144.303	-34.4413	-61.3565	-139.517	-65.6651	-43.6329	-179.431	-8.63801	-41.0801	-170.915	-9.79471	-74.9545	-161.505	-23.4081	-104.025	-196.678	-19.3423	-35.429	-194.935	-17.2037	-65.5429	-189.592	-22.7645	-88.9613	-214.323	-38.1297	-27.6668	-213.822	-37.5944	-50.5689	-213.368	-42.6067	-76.9868	-200.38	-24.0438	13.2238	-205.008	-33.5534	44.5156	-173.94	-17.7207	30.7791	
59	0.491667	-140.272	-39.8307	35.055	-122.047	-38.3874	8.63447	-116.603	-41.6043	-20.5149	-132.411	-51.9474	-41.1597	-153.885	-14.9937	-45.7683	-142.631	-37.5314	-66.1497	-142.811	-63.6265	-54.3912	-181.277	-7.77015	-48.1611	-173.429	-8.10697	-74.8944	-168.842	-22.8737	-105.98	-198.543	-17.7941	-42.0597	-194.964	-15.7163	-69.7768	-193.611	-22.2011	-98.1207	-215.698	-38.1334	-29.0297	-217.876	-36.9322	-57.8642	-216.219	-40.6987	-77.1415	-206.508	-26.2441	13.8504	-207.746	-32.2059	40.6265	-170.784	-17.4028	27.5302	
60	0.5	-141.116	-41.825	26.0533	-124.451	-41.1505	-0.505507	-120.231	-44.1228	-34.9429	-136.978	-52.1806	-50.754	-158.45	-14.9534	-48.0295	-151.674	-34.1547	-75.7412	-150.434	-67.9005	-63.402	-178.558	-5.38658	-52.8993	-176.85	-6.60311	-80.7037	-168.556	-18.786	-115.946	-200.609	-14.8048	-46.6649	-201.454	-12.4894	-74.8539	-197.131	-16.9569	-100.192	-216.89	-32.6098	-35.5967	-222.71	-31.674	-59.7373	-224.824	-32.3503	-82.5004	-203.409	-21.541	3.90518	-204.431	-30.8878	36.1369	-174.903	-20.4504	19.639	
